# xmcd
#
# Track frame offsets: 
#        150
#        12004
#        31929
#        51121
#        63230
#        76208
#        89093
#        94501
#        107741
#        119575
#        132525
#        152002
#        164142
#        176111
#        185331
#        198005
#        206764
#        221177
#        233592
#        245104
#        257737
#        269859
#
# Disc length: 3769 seconds
#
# Revision: 0
# Processed by: cddbd v1.5.2PL0 Copyright (c) Steve Scherf et al.
# Submitted via: ExactAudioCopy v1.1
#
DISCID=440eb716
DTITLE=Various Artists  - All-Time Country Favourites - Legends dISC 1
DYEAR=2008
DGENRE=Country
TTITLE0=Johnny Cash - Ring of fire
TTITLE1=Marty Robbins - El Paso
TTITLE2=Bobbie Gentry - Ode to Billie Joe
TTITLE3=Glen Campbell - Galveston
TTITLE4=Faron Young - It's four in the morning
TTITLE5=Patsy Cline - I fall to pieces
TTITLE6=Hank Locklin - Let me be the one
TTITLE7=Charlie Rich - Behind closed doors
TTITLE8=Tammy Wynette - I don't wanna play house
TTITLE9=Willie Nelson - Remember me ( when the candle lights are gleam
TTITLE9=ing )
TTITLE10=Kenny Rogers - Coward of the county
TTITLE11=Dolly Parton - Jolene
TTITLE12=Billy Jo Spears - Misty Blue
TTITLE13=Jim Reeves - I won't forget you
TTITLE14=Ray Price - One more time
TTITLE15=Don Gibson - Blue, blue day
TTITLE16=Conway Twitty - Fifteen years ago
TTITLE17=Hank Williams - Cold, cold heart
TTITLE18=Bob Wills and his Texas Playboys - New Spanish two-step
TTITLE19=Roy Acuff and his Smokey Mountain Boys - The prodigal son
TTITLE20=Bill Monroe and his Bluegrass Boys - Footprints in the snow
TTITLE21=Roy Rogers - Blue shadows on the trail
EXTD=
EXTT0=
EXTT1=
EXTT2=
EXTT3=
EXTT4=
EXTT5=
EXTT6=
EXTT7=
EXTT8=
EXTT9=
EXTT10=
EXTT11=
EXTT12=
EXTT13=
EXTT14=
EXTT15=
EXTT16=
EXTT17=
EXTT18=
EXTT19=
EXTT20=
EXTT21=
PLAYORDER=
